<svg xmlns="http://www.w3.org/2000/svg" width="1512" height="694" viewBox="0 0 1512 694">
<g>
<path d="M 845.62 582.53 C840.69,580.77 835.36,575.63 833.90,571.21 C831.21,563.05 834.84,553.13 841.98,549.14 C849.75,544.79 857.08,545.50 863.59,551.21 L 867.00 554.21 L 867.00 550.60 C867.00,548.07 867.44,547.00 868.50,547.00 C869.78,547.00 870.00,549.67 870.00,565.00 C870.00,580.33 869.78,583.00 868.50,583.00 C867.44,583.00 867.00,581.93 867.00,579.40 L 867.00 575.79 L 863.53 578.84 C860.30,581.68 854.50,584.04 851.00,583.95 C850.17,583.93 847.76,583.29 845.62,582.53 ZM 1263.62 582.77 C1258.35,581.37 1252.61,575.45 1251.22,569.96 C1247.09,553.68 1264.55,540.36 1278.72,548.97 C1283.47,551.86 1287.18,557.43 1287.75,562.52 C1288.76,571.44 1282.72,580.59 1274.28,582.94 C1269.87,584.16 1268.83,584.15 1263.62,582.77 ZM 1015.76 583.05 C1003.69,579.22 998.53,567.01 1004.29,555.91 C1006.04,552.53 1007.83,550.86 1011.97,548.75 C1018.57,545.38 1021.99,545.31 1028.66,548.42 C1038.17,552.85 1041.72,563.75 1036.90,573.70 C1033.49,580.76 1023.07,585.37 1015.76,583.05 ZM 1138.64 582.54 C1130.76,579.73 1126.57,573.12 1126.78,563.81 C1126.90,558.22 1128.82,554.17 1133.01,550.65 C1139.64,545.06 1149.53,544.89 1155.63,550.25 C1159.79,553.91 1161.53,557.07 1162.47,562.75 L 1163.18 567.00 L 1129.87 567.00 L 1130.54 569.25 C1133.75,580.03 1148.15,583.85 1155.99,576.01 C1157.49,574.51 1158.52,574.19 1159.71,574.86 C1163.49,576.97 1151.38,584.13 1144.31,583.96 C1143.31,583.93 1140.76,583.29 1138.64,582.54 ZM 1027.58 578.39 C1041.11,571.98 1036.01,550.00 1021.00,550.00 C1013.15,550.00 1007.42,554.57 1005.60,562.29 C1004.21,568.18 1008.74,576.71 1014.50,579.06 C1017.82,580.41 1023.99,580.10 1027.58,578.39 ZM 858.72 578.33 C868.67,573.61 869.36,558.58 859.91,552.32 C856.57,550.11 855.23,549.82 850.35,550.22 C845.26,550.64 844.28,551.11 840.84,554.81 C837.29,558.62 837.00,559.36 837.00,564.83 C837.00,569.36 837.50,571.37 839.16,573.48 C844.12,579.78 851.69,581.66 858.72,578.33 ZM 1276.76 578.01 C1289.82,570.04 1284.20,550.02 1268.90,550.00 C1260.95,550.00 1254.00,556.89 1254.00,564.77 C1254.00,569.39 1257.48,575.71 1261.29,578.04 C1265.52,580.61 1272.50,580.60 1276.76,578.01 ZM 774.00 565.00 C774.00,549.67 774.22,547.00 775.50,547.00 C776.46,547.00 777.00,547.96 777.00,549.67 L 777.00 552.35 L 779.25 550.24 C784.75,545.08 793.15,545.01 797.41,550.08 L 799.86 552.99 L 802.78 550.07 C808.27,544.58 817.81,545.19 822.39,551.32 C824.27,553.82 824.54,555.75 824.82,568.57 C825.14,582.61 825.09,583.00 823.07,583.00 C821.07,583.00 821.00,582.50 821.00,568.95 C821.00,555.38 820.92,554.83 818.55,552.45 C815.61,549.52 809.69,549.13 806.12,551.63 C802.17,554.40 801.00,558.92 801.00,571.47 C801.00,581.05 800.75,583.00 799.50,583.00 C798.26,583.00 798.00,581.13 797.98,572.25 C797.94,554.67 795.85,550.00 788.02,550.00 C783.21,550.00 779.37,552.99 778.04,557.80 C777.47,559.83 777.01,566.34 777.01,572.25 C777.00,581.14 776.74,583.00 775.50,583.00 C774.22,583.00 774.00,580.33 774.00,565.00 ZM 966.00 582.10 C962.07,580.71 959.21,578.75 955.95,575.23 C950.83,569.68 949.00,564.81 949.00,556.75 C949.00,546.26 957.14,535.66 967.29,532.92 C976.42,530.45 987.97,533.61 993.40,540.07 C995.48,542.53 995.81,543.53 994.91,544.61 C993.96,545.75 993.09,545.31 989.99,542.11 C985.28,537.25 980.58,535.67 972.44,536.18 C960.57,536.94 953.00,545.32 953.00,557.70 C953.00,565.21 955.15,570.17 960.41,574.79 C968.97,582.31 981.62,581.65 990.25,573.25 C993.02,570.55 994.29,569.89 995.12,570.72 C996.85,572.45 992.98,577.15 987.24,580.27 C980.48,583.95 973.04,584.59 966.00,582.10 ZM 743.28 583.08 C737.40,581.59 731.10,576.32 731.03,572.83 C730.98,569.92 733.36,570.24 735.49,573.43 C739.46,579.38 748.16,581.63 755.45,578.58 C759.61,576.85 761.21,574.06 760.81,569.24 C760.44,564.81 757.05,562.18 747.70,559.06 C735.23,554.90 730.87,549.90 732.96,542.15 C735.41,533.04 746.48,529.23 755.91,534.25 C760.72,536.81 764.06,541.34 762.38,543.02 C761.63,543.77 760.13,542.89 757.28,540.04 C753.51,536.27 752.86,536.00 747.57,536.00 C742.92,536.00 741.48,536.43 739.50,538.41 C733.63,544.28 735.56,550.23 744.50,553.81 C761.82,560.74 765.00,563.23 765.00,569.83 C764.99,579.39 754.34,585.88 743.28,583.08 ZM 1048.00 565.00 C1048.00,547.67 1048.07,547.00 1050.00,547.00 C1051.54,547.00 1052.00,547.67 1052.00,549.90 L 1052.00 552.80 L 1055.01 549.99 C1060.75,544.63 1070.44,545.17 1075.47,551.14 C1077.92,554.06 1078.00,554.60 1078.00,568.58 C1078.00,580.73 1077.76,583.00 1076.50,583.00 C1075.25,583.00 1075.00,580.94 1075.00,570.45 C1075.00,557.19 1073.96,553.12 1070.06,551.03 C1067.23,549.52 1061.33,549.78 1057.87,551.57 C1053.26,553.95 1052.00,558.23 1052.00,571.47 C1052.00,582.33 1051.88,583.00 1050.00,583.00 C1048.07,583.00 1048.00,582.33 1048.00,565.00 ZM 1297.00 564.93 C1297.00,548.25 1297.14,546.88 1298.75,547.19 C1299.71,547.37 1300.65,548.54 1300.82,549.79 L 1301.15 552.05 L 1304.10 549.57 C1310.27,544.38 1320.45,545.53 1324.72,551.90 C1326.82,555.03 1327.00,556.39 1327.00,569.15 C1327.00,580.79 1326.76,583.00 1325.50,583.00 C1324.26,583.00 1324.00,581.08 1323.99,571.75 C1323.99,553.97 1321.90,550.00 1312.55,550.00 C1308.97,550.00 1307.35,550.61 1304.77,552.92 L 1301.50 555.83 L 1301.17 569.42 C1300.87,582.04 1300.71,583.00 1298.92,583.00 C1297.10,583.00 1297.00,582.09 1297.00,564.93 ZM 1089.00 565.00 C1089.00,549.67 1089.22,547.00 1090.50,547.00 C1091.52,547.00 1092.00,548.02 1092.00,550.15 L 1092.00 553.29 L 1094.33 550.78 C1099.16,545.56 1107.98,544.83 1113.52,549.19 C1117.99,552.71 1119.00,556.64 1119.00,570.47 C1119.00,582.33 1118.89,583.00 1117.00,583.00 C1115.10,583.00 1115.00,582.33 1115.00,569.42 L 1115.00 555.85 L 1112.08 552.92 C1106.42,547.27 1096.68,549.72 1093.38,557.64 C1092.49,559.76 1092.00,564.85 1092.00,571.97 C1092.00,581.11 1091.74,583.00 1090.50,583.00 C1089.22,583.00 1089.00,580.33 1089.00,565.00 ZM 1181.62 582.58 C1172.90,579.36 1168.05,570.85 1169.48,561.31 C1170.84,552.25 1181.64,544.78 1190.91,546.50 C1197.94,547.81 1204.68,553.72 1202.08,556.32 C1201.28,557.12 1200.56,556.82 1199.43,555.20 C1195.74,549.93 1186.23,548.34 1180.24,551.99 C1167.35,559.86 1172.78,579.98 1187.80,580.00 C1192.72,580.00 1197.18,578.01 1199.43,574.80 C1200.59,573.14 1201.27,572.87 1202.12,573.72 C1203.82,575.42 1202.57,577.60 1198.27,580.44 C1193.46,583.63 1186.77,584.49 1181.62,582.58 ZM 1342.50 582.49 C1338.82,581.19 1335.00,577.88 1335.00,576.00 C1335.00,574.43 1338.08,574.06 1338.66,575.55 C1340.35,579.95 1350.89,581.45 1355.37,577.93 C1360.82,573.63 1357.87,569.37 1347.21,566.13 C1336.95,563.02 1334.03,558.70 1337.57,551.87 C1339.14,548.84 1344.15,546.00 1347.95,546.00 C1351.32,546.00 1357.99,549.12 1359.12,551.23 C1360.93,554.61 1358.61,555.47 1355.48,552.57 C1350.22,547.69 1340.00,549.89 1340.00,555.90 C1340.00,559.66 1342.31,561.46 1349.80,563.54 C1358.63,565.99 1361.00,568.08 1361.00,573.40 C1361.00,578.34 1358.38,581.46 1352.92,583.02 C1348.55,584.28 1347.35,584.22 1342.50,582.49 ZM 1159.00 562.52 C1159.00,562.26 1158.28,560.24 1157.40,558.04 C1152.57,545.98 1134.40,547.82 1130.54,560.75 L 1129.87 563.00 L 1144.43 563.00 C1152.44,563.00 1159.00,562.78 1159.00,562.52 ZM 1218.45 580.55 C1216.09,578.18 1216.00,577.59 1216.00,564.61 L 1216.00 551.12 L 1212.26 550.81 C1209.64,550.59 1208.42,549.97 1208.18,548.75 C1207.91,547.32 1208.59,547.00 1211.93,547.00 L 1216.00 547.00 L 1216.00 542.61 C1216.00,539.62 1216.48,538.03 1217.50,537.64 C1218.71,537.17 1219.00,538.03 1219.00,542.03 L 1219.00 547.00 L 1224.50 547.00 C1229.33,547.00 1230.00,547.24 1230.00,549.00 C1230.00,550.76 1229.33,551.00 1224.50,551.00 L 1219.00 551.00 L 1219.01 562.75 C1219.03,577.29 1219.86,579.38 1225.77,579.81 C1228.65,580.02 1230.00,580.58 1230.00,581.56 C1230.00,582.60 1228.75,583.00 1225.45,583.00 C1221.96,583.00 1220.34,582.43 1218.45,580.55 ZM 911.00 581.00 C909.19,579.19 909.00,577.67 909.00,565.00 L 909.00 551.00 L 905.00 551.00 C901.67,551.00 901.00,550.67 901.00,549.00 C901.00,547.34 901.67,547.00 904.95,547.00 L 908.89 547.00 L 909.20 542.33 C909.63,535.66 912.00,535.31 912.00,541.92 L 912.00 547.00 L 917.57 547.00 C922.34,547.00 923.10,547.25 922.81,548.75 C922.56,550.10 921.29,550.57 917.24,550.80 L 912.00 551.10 L 912.00 563.90 C912.00,578.44 912.71,580.00 919.33,580.00 C921.93,580.00 923.00,580.44 923.00,581.50 C923.00,583.93 913.54,583.54 911.00,581.00 ZM 882.00 565.00 C882.00,549.67 882.22,547.00 883.50,547.00 C884.51,547.00 885.00,548.01 885.00,550.10 L 885.00 553.21 L 888.53 550.10 C892.22,546.87 897.00,545.92 897.00,548.42 C897.00,549.20 895.71,550.13 894.13,550.47 C890.78,551.21 887.58,554.32 886.07,558.32 C885.48,559.86 885.00,566.05 885.00,572.07 C885.00,581.12 884.74,583.00 883.50,583.00 C882.22,583.00 882.00,580.33 882.00,565.00 ZM 1238.00 565.00 C1238.00,547.67 1238.07,547.00 1240.00,547.00 C1241.93,547.00 1242.00,547.67 1242.00,565.00 C1242.00,582.33 1241.93,583.00 1240.00,583.00 C1238.07,583.00 1238.00,582.33 1238.00,565.00 ZM 1237.72 536.71 C1236.93,534.65 1238.48,532.75 1240.62,533.17 C1243.28,533.68 1243.08,537.42 1240.38,537.80 C1239.21,537.97 1238.01,537.48 1237.72,536.71 Z" fill="rgba(0,0,0,1)"/>
<path d="M 758.22 151.44 C755.46,149.51 755.42,147.37 758.06,143.50 C771.57,123.69 772.63,98.84 760.81,79.33 C757.30,73.55 748.12,63.79 743.75,61.20 C739.06,58.42 738.91,52.56 743.50,51.41 C746.74,50.60 753.00,55.04 761.43,64.15 C776.01,79.89 782.04,102.21 777.42,123.30 C774.77,135.44 765.11,153.00 761.09,153.00 C760.73,153.00 759.44,152.30 758.22,151.44 ZM 652.69 151.75 C637.28,132.74 633.71,104.18 643.99,82.20 C650.02,69.33 663.49,54.00 668.79,54.00 C671.16,54.00 674.00,56.48 674.00,58.55 C674.00,59.32 670.51,63.45 666.24,67.73 C653.84,80.14 648.00,93.42 648.00,109.16 C648.00,122.60 651.59,133.75 659.38,144.50 C663.14,149.68 663.86,152.74 661.80,154.80 C659.43,157.17 656.21,156.10 652.69,151.75 ZM 665.44 140.49 C656.38,125.03 655.61,106.57 663.39,91.22 C667.97,82.18 680.90,70.00 685.91,70.00 C688.38,70.00 691.29,74.08 690.42,76.34 C690.08,77.23 688.34,78.87 686.54,79.97 C681.32,83.20 674.08,91.60 671.18,97.78 C668.80,102.85 668.50,104.70 668.50,114.05 C668.50,124.28 668.62,124.84 672.36,132.41 C675.62,139.02 676.05,140.59 675.13,142.61 C674.34,144.35 673.23,145.00 671.06,145.00 C668.59,145.00 667.64,144.24 665.44,140.49 ZM 739.85 139.57 C738.91,137.51 739.19,136.41 741.68,132.32 C753.17,113.50 750.38,93.51 734.26,79.09 C729.42,74.77 728.00,72.87 728.00,70.72 C728.00,68.76 728.66,67.69 730.21,67.12 C733.80,65.79 735.96,66.94 743.18,74.04 C748.30,79.07 750.96,82.73 753.76,88.63 C757.49,96.48 757.50,96.53 757.47,109.50 C757.43,123.79 756.15,128.56 749.92,137.61 C747.50,141.14 746.32,142.00 743.93,142.00 C741.75,142.00 740.66,141.35 739.85,139.57 ZM 724.65 130.17 C722.48,127.76 722.55,127.06 725.53,121.31 C730.98,110.81 729.75,102.86 721.32,94.09 C718.39,91.04 716.00,87.82 716.00,86.93 C716.00,84.86 719.13,82.00 721.41,82.00 C724.59,82.00 734.33,92.99 736.42,98.93 C740.01,109.12 738.05,122.53 732.03,128.97 C728.77,132.46 726.99,132.75 724.65,130.17 ZM 685.52 130.25 C681.51,125.94 679.00,117.99 679.00,109.62 C679.00,103.53 679.49,101.34 681.96,96.39 C687.13,86.06 694.08,81.08 697.95,84.95 C700.73,87.73 700.59,88.40 696.13,93.27 C687.06,103.19 685.90,112.97 692.57,123.23 C695.25,127.34 695.63,129.97 693.80,131.80 C691.79,133.81 688.22,133.15 685.52,130.25 ZM 705.92 121.95 C696.72,119.49 693.14,110.56 698.28,102.90 C701.52,98.07 707.39,96.11 712.62,98.11 C719.72,100.81 723.00,109.23 719.55,115.90 C717.04,120.75 711.17,123.36 705.92,121.95 Z" fill="rgba(0,172,255,1)"/>
<path d="M 592.00 638.88 C575.78,638.43 526.28,637.16 482.00,636.05 C437.73,634.94 392.73,633.80 382.00,633.50 C361.97,632.95 253.53,630.20 145.50,627.51 C44.41,624.99 2.51,623.84 2.23,623.56 C2.08,623.41 16.48,623.00 34.23,622.64 C51.98,622.28 75.16,621.70 85.75,621.35 L 105.00 620.72 L 105.00 609.45 L 105.00 598.18 L 100.56 596.03 C89.18,590.52 89.79,573.10 101.50,568.86 L 105.00 567.60 L 105.00 549.38 L 105.00 531.16 L 102.04 530.51 C98.19,529.66 93.28,524.01 92.42,519.42 C91.06,512.19 95.91,504.06 102.58,502.39 L 105.00 501.78 L 105.00 375.34 L 105.00 248.90 L 101.62 247.49 C94.92,244.69 90.94,237.12 92.47,230.13 C94.65,220.21 106.87,215.71 115.58,221.62 L 119.44 224.24 L 140.22 213.89 L 161.00 203.54 L 161.00 198.42 C161.00,191.79 163.93,187.28 170.26,184.14 L 175.02 181.78 L 174.76 136.14 L 174.50 90.50 L 172.21 90.18 C168.46,89.64 162.28,83.01 161.46,78.62 C160.46,73.29 163.43,66.31 168.02,63.19 C172.94,59.84 181.72,60.40 185.81,64.32 L 188.62 67.01 L 221.06 52.14 L 253.50 37.27 L 254.14 32.13 C255.27,23.09 260.65,18.01 269.10,18.00 C274.85,18.00 279.79,21.09 282.33,26.26 L 284.16 30.00 L 333.50 30.00 L 382.84 30.00 L 384.67 26.26 C389.70,15.99 404.42,15.09 410.70,24.66 C411.90,26.49 412.51,29.34 412.52,33.16 L 412.54 38.91 L 442.50 57.36 L 472.46 75.81 L 475.48 73.65 C479.59,70.72 487.75,70.68 491.61,73.56 C498.74,78.88 500.57,85.70 496.81,92.98 C495.13,96.24 493.34,98.01 490.25,99.48 L 486.00 101.50 L 486.00 143.77 L 486.00 186.05 L 488.75 187.09 C495.09,189.48 499.83,197.08 498.66,202.94 C498.11,205.69 498.23,205.75 521.77,215.84 C541.43,224.27 545.57,225.73 546.27,224.49 C547.52,222.26 554.48,219.00 558.00,219.00 C565.61,219.00 573.00,226.39 573.00,234.00 C573.00,239.29 569.44,244.81 564.46,247.23 L 560.00 249.40 L 560.00 373.00 L 560.00 496.60 L 563.50 497.86 C567.36,499.26 571.47,503.99 572.53,508.26 C574.18,514.84 569.90,522.89 563.30,525.65 L 560.00 527.03 L 560.00 540.93 L 560.00 554.84 L 563.53 557.02 C567.59,559.53 571.00,565.49 571.00,570.06 C571.00,574.81 568.13,579.89 563.84,582.72 L 560.00 585.27 L 560.00 597.29 L 560.00 609.31 L 589.75 608.65 C606.11,608.28 627.49,607.69 637.25,607.34 L 655.00 606.70 L 655.00 623.35 L 655.00 640.00 L 638.25 639.84 C629.04,639.76 608.22,639.32 592.00,638.88 ZM 147.69 619.59 C148.26,619.18 159.56,557.00 159.06,557.00 C158.74,557.00 150.16,561.65 140.01,567.33 L 121.55 577.66 L 121.85 581.74 C122.27,587.63 119.08,593.34 114.05,595.65 L 110.05 597.50 L 110.03 609.21 L 110.00 620.92 L 128.75 620.32 C139.06,619.99 147.59,619.66 147.69,619.59 ZM 182.68 618.94 C196.94,618.89 203.14,618.52 203.81,617.68 C204.90,616.32 235.00,548.79 235.00,547.72 C235.00,547.32 225.11,547.00 213.02,547.00 L 191.04 547.00 L 190.41 549.49 C189.59,552.76 183.96,557.63 180.00,558.50 C175.74,559.44 170.76,558.38 167.57,555.88 C164.51,553.47 162.28,553.96 161.53,557.21 C160.51,561.67 150.00,618.16 150.00,619.21 C150.00,619.92 152.10,620.07 156.25,619.65 C159.69,619.30 171.58,618.99 182.68,618.94 ZM 260.00 617.02 C276.77,616.51 296.94,616.02 304.80,615.94 C313.35,615.86 318.97,615.42 318.78,614.85 C318.61,614.32 302.95,598.84 283.98,580.43 L 249.50 546.96 L 243.51 547.23 L 237.51 547.50 L 225.70 574.00 C219.21,588.58 212.15,604.44 210.01,609.25 L 206.11 618.00 L 217.81 617.98 C224.24,617.97 243.23,617.54 260.00,617.02 ZM 392.88 612.29 C398.66,608.62 440.08,575.74 439.80,575.04 C439.64,574.62 436.83,568.13 433.58,560.63 L 427.65 547.00 L 339.83 547.00 C291.52,547.00 252.00,547.16 252.00,547.36 C252.00,547.55 267.61,562.90 286.70,581.47 L 321.39 615.22 L 355.95 614.52 C384.20,613.94 390.93,613.53 392.88,612.29 ZM 436.80 612.39 C447.41,612.06 455.96,611.45 455.80,611.04 C451.57,600.56 441.37,579.04 440.73,579.26 C439.49,579.67 397.15,612.39 397.07,613.00 C396.99,613.53 405.28,613.40 436.80,612.39 ZM 512.93 594.47 C528.09,585.43 540.85,577.91 541.28,577.76 C541.70,577.61 541.70,575.05 541.28,572.08 L 540.50 566.68 L 531.50 563.53 C505.70,554.48 498.25,552.00 496.93,552.00 C496.13,552.00 494.90,552.93 494.19,554.07 C491.18,558.89 480.90,560.46 475.19,556.97 C473.37,555.86 471.34,555.27 470.69,555.66 C467.69,557.44 444.00,576.41 444.00,577.04 C444.00,577.42 446.98,584.44 450.61,592.62 C454.25,600.80 457.64,608.58 458.14,609.90 L 459.06 612.30 L 472.21 611.60 L 485.36 610.91 L 512.93 594.47 ZM 554.75 609.45 C555.66,609.17 556.00,605.81 556.00,597.16 L 556.00 585.25 L 552.83 584.62 C551.09,584.27 548.16,582.83 546.32,581.43 L 542.96 578.87 L 517.23 594.08 C503.08,602.44 491.06,609.68 490.52,610.17 C489.59,611.01 551.96,610.31 554.75,609.45 ZM 456.50 563.01 C463.10,557.90 468.85,553.41 469.29,553.02 C469.72,552.64 469.62,551.13 469.06,549.66 L 468.05 547.00 L 449.42 547.00 C434.92,547.00 430.89,547.28 431.27,548.25 C435.83,560.08 442.54,573.81 443.42,573.13 C444.01,572.67 449.90,568.12 456.50,563.01 ZM 128.50 567.92 C133.45,565.13 142.74,559.95 149.14,556.41 L 160.78 549.98 L 161.46 545.40 C161.84,542.88 161.96,540.63 161.73,540.40 C161.50,540.17 151.93,536.63 140.47,532.55 L 119.63 525.12 L 116.28 528.06 C114.44,529.68 112.27,531.00 111.47,531.00 C110.23,531.00 110.00,533.90 110.00,549.38 L 110.00 567.76 L 112.97 568.99 C114.60,569.66 116.45,570.84 117.09,571.61 C117.72,572.37 118.53,573.00 118.87,573.00 C119.22,573.00 123.55,570.71 128.50,567.92 ZM 545.97 559.03 C547.71,557.40 550.69,555.77 552.57,555.42 L 556.00 554.78 L 556.00 540.98 L 556.00 527.18 L 551.54 525.02 C548.03,523.32 546.60,521.82 544.79,517.97 C543.53,515.28 541.83,513.07 541.00,513.06 C540.17,513.05 529.49,513.90 517.27,514.96 C492.03,517.14 490.90,517.54 489.01,524.95 C487.95,529.09 488.03,529.51 490.19,531.18 C491.46,532.15 492.80,532.97 493.16,532.98 C494.33,533.02 498.00,541.55 498.00,544.23 C498.00,546.65 498.76,547.09 508.75,550.44 C514.66,552.42 524.45,555.80 530.50,557.96 C536.55,560.11 541.79,561.91 542.14,561.94 C542.50,561.97 544.22,560.66 545.97,559.03 ZM 238.00 541.05 C238.00,539.15 230.78,538.81 215.29,539.98 C206.60,540.64 199.31,541.36 199.08,541.59 C198.85,541.81 207.52,542.00 218.33,542.00 C230.16,542.00 238.00,541.62 238.00,541.05 ZM 243.00 540.50 C242.32,539.67 241.63,539.00 241.48,539.00 C241.34,539.00 240.95,539.67 240.64,540.50 C240.24,541.54 240.71,542.00 242.15,542.00 C243.90,542.00 244.04,541.75 243.00,540.50 ZM 425.00 541.59 C425.00,541.37 423.67,538.22 422.04,534.59 C419.82,529.65 418.58,528.00 417.08,528.00 C415.98,528.00 414.18,527.04 413.08,525.86 L 411.08 523.71 L 329.29 530.42 C284.31,534.10 246.44,537.34 245.14,537.61 C242.86,538.08 242.84,538.17 244.54,540.05 C246.27,541.96 248.30,542.00 335.65,542.00 C384.79,542.00 425.00,541.82 425.00,541.59 ZM 469.11 538.64 L 470.63 535.27 L 464.56 530.27 C459.35,525.99 458.01,525.34 455.17,525.76 C452.54,526.15 451.28,525.69 449.00,523.50 C446.18,520.80 445.98,520.76 437.32,521.42 C420.73,522.68 420.18,523.28 425.14,534.75 L 428.27 542.00 L 447.93 542.00 L 467.58 542.00 L 469.11 538.64 ZM 217.66 537.92 C232.81,536.71 232.82,536.71 233.32,534.11 C233.59,532.68 233.61,531.17 233.35,530.76 C232.27,529.00 224.93,530.28 211.41,534.58 C197.94,538.86 193.36,540.85 199.75,539.64 C201.26,539.35 209.32,538.58 217.66,537.92 ZM 204.39 533.94 C226.18,527.19 227.00,526.88 227.00,525.60 C227.00,524.92 225.76,523.30 224.25,522.01 C222.74,520.72 213.80,512.07 204.39,502.78 L 187.28 485.90 L 183.39 488.13 C181.25,489.36 179.36,490.46 179.19,490.58 C179.01,490.70 179.87,499.50 181.09,510.15 L 183.31 529.50 L 186.90 533.66 C188.88,535.94 190.67,537.85 190.89,537.91 C191.10,537.96 197.17,536.17 204.39,533.94 ZM 167.70 514.49 C170.01,502.39 171.92,492.02 171.95,491.43 C171.98,490.84 170.23,489.20 168.07,487.78 L 164.13 485.21 L 143.32 498.60 L 122.50 511.99 L 121.91 517.25 C121.59,520.14 121.37,522.58 121.42,522.68 C121.84,523.41 160.82,536.88 162.00,536.70 C163.13,536.53 164.54,531.03 167.70,514.49 ZM 331.59 528.47 C374.54,524.91 410.15,522.00 410.72,522.00 C411.29,522.00 412.28,520.75 412.91,519.22 C413.94,516.73 413.44,515.02 408.17,502.97 L 402.29 489.50 L 396.55 488.98 C391.50,488.52 390.40,488.01 387.37,484.70 L 383.92 480.94 L 356.21 489.57 C340.97,494.32 318.38,501.34 306.00,505.18 C255.42,520.87 249.00,523.04 249.00,524.54 C249.00,525.34 248.57,526.00 248.05,526.00 C247.26,526.00 243.00,534.19 243.00,535.70 C243.00,535.94 245.36,535.87 248.25,535.54 C251.14,535.21 288.64,532.03 331.59,528.47 ZM 481.59 529.22 C485.18,528.48 485.57,528.07 486.40,524.16 C487.01,521.31 486.95,519.55 486.24,518.84 C484.62,517.22 463.33,518.81 461.46,520.68 C459.15,522.99 459.77,524.20 465.82,529.13 L 471.50 533.77 L 474.59 531.90 C476.29,530.88 479.44,529.67 481.59,529.22 ZM 177.25 529.22 C181.78,529.62 181.65,531.21 179.00,508.00 C177.90,498.38 177.00,490.39 177.00,490.25 C177.00,490.11 176.32,490.00 175.50,490.00 C174.68,490.00 174.00,490.18 174.00,490.41 C174.00,490.95 167.10,527.92 166.50,530.64 L 166.02 532.78 L 169.76 530.83 C172.08,529.63 174.92,529.02 177.25,529.22 ZM 243.00 531.08 C243.00,530.58 243.27,529.47 243.59,528.62 C244.35,526.63 240.59,525.67 236.50,526.81 C232.14,528.02 232.69,530.38 237.50,531.11 C239.70,531.44 241.84,531.78 242.25,531.86 C242.66,531.94 243.00,531.59 243.00,531.08 ZM 237.51 523.59 C238.61,523.27 239.96,522.00 240.51,520.76 C241.26,519.05 242.35,518.49 245.00,518.45 L 248.50 518.40 L 255.13 503.45 L 261.77 488.50 L 258.95 485.50 C257.39,483.85 255.66,481.26 255.09,479.75 L 254.05 477.00 L 222.77 477.01 L 191.50 477.02 L 189.77 481.13 L 188.05 485.24 L 207.65 504.37 C219.34,515.77 228.32,523.75 229.88,524.12 C232.50,524.74 233.76,524.65 237.51,523.59 ZM 439.80 519.43 C445.73,518.91 447.05,518.49 446.80,517.20 C446.63,516.33 438.01,508.67 427.65,500.18 C408.94,484.87 408.78,484.77 406.84,486.71 C404.90,488.66 404.93,488.77 410.80,502.09 C415.44,512.62 417.30,515.79 419.42,516.84 C420.91,517.57 422.39,518.84 422.70,519.66 C423.14,520.80 424.36,521.02 427.89,520.61 C430.42,520.31 435.79,519.78 439.80,519.43 ZM 313.50 500.00 C333.30,493.86 357.15,486.43 366.50,483.47 L 383.50 478.10 L 333.50 478.07 L 283.50 478.04 L 282.00 481.26 C279.75,486.09 274.71,489.00 268.59,489.00 L 263.48 489.00 L 256.99 503.66 C253.42,511.72 250.36,518.66 250.19,519.08 C250.03,519.49 256.10,517.88 263.69,515.49 C271.29,513.11 293.70,506.13 313.50,500.00 ZM 476.16 516.46 C484.18,515.88 484.87,515.66 485.41,513.48 C485.74,512.19 486.86,510.86 487.90,510.53 C489.36,510.07 490.40,507.41 492.49,498.72 C493.98,492.55 495.43,486.60 495.72,485.50 C496.23,483.56 496.18,483.56 493.87,485.63 C490.16,488.95 487.48,490.00 482.71,490.00 C477.16,490.00 472.17,486.84 469.67,481.74 L 467.84 478.00 L 440.14 478.00 L 412.44 478.00 L 411.39 480.77 C410.37,483.49 410.68,483.81 428.74,498.52 C438.86,506.76 447.89,513.41 448.82,513.31 C449.74,513.20 451.74,512.81 453.26,512.44 C455.53,511.88 456.50,512.31 458.76,514.84 C460.94,517.28 462.12,517.83 464.50,517.50 C466.15,517.27 471.40,516.80 476.16,516.46 ZM 523.95 512.47 C533.55,511.66 541.77,511.00 542.20,511.00 C545.39,511.00 540.14,507.69 520.88,497.55 C508.71,491.15 498.64,486.04 498.50,486.20 C498.35,486.37 496.99,491.80 495.47,498.28 C493.21,507.89 492.92,510.52 493.85,512.58 C494.94,514.96 495.32,515.07 500.75,514.52 C503.91,514.19 514.35,513.27 523.95,512.47 ZM 141.30 494.14 C160.32,481.87 161.94,480.60 161.38,478.39 C159.82,472.16 164.26,464.04 170.70,461.35 L 174.00 459.97 L 174.00 391.24 L 173.99 322.50 L 143.92 412.73 L 113.85 502.97 L 116.68 505.45 C118.23,506.82 119.75,507.84 120.06,507.72 C120.37,507.60 129.93,501.49 141.30,494.14 ZM 546.32 501.86 C547.10,500.61 545.87,495.62 541.26,481.36 C537.91,470.99 531.50,451.02 527.03,437.00 C516.85,405.13 517.97,408.08 516.94,410.50 C514.68,415.80 499.87,480.27 500.71,481.11 C502.51,482.91 542.51,503.78 543.89,503.64 C544.66,503.56 545.75,502.76 546.32,501.86 ZM 142.78 407.21 L 174.06 312.50 L 174.12 264.00 C174.15,237.32 174.13,214.97 174.09,214.33 C174.04,213.68 172.48,212.65 170.62,212.04 C168.76,211.43 166.48,210.08 165.54,209.05 C163.90,207.23 163.19,207.50 142.94,217.83 L 122.04 228.50 L 122.02 232.80 C122.01,235.16 121.34,238.37 120.54,239.93 C118.82,243.26 113.46,248.00 111.42,248.00 C110.20,248.00 110.00,265.82 110.00,375.00 C110.00,444.85 110.34,501.98 110.75,501.96 C111.16,501.94 125.58,459.30 142.78,407.21 ZM 554.25 497.27 C555.90,496.79 556.00,490.10 555.93,374.13 C555.89,298.92 555.51,252.27 554.95,253.50 C554.44,254.60 551.55,265.85 548.52,278.50 C545.48,291.15 537.80,323.07 531.44,349.42 C519.91,397.19 519.88,397.36 521.61,400.58 C523.26,403.63 523.26,403.96 521.65,406.42 C519.97,408.97 520.20,409.82 534.02,452.76 C541.76,476.82 548.30,497.11 548.56,497.85 C548.85,498.71 549.66,498.94 550.76,498.49 C551.72,498.10 553.29,497.55 554.25,497.27 ZM 506.52 441.03 L 514.08 409.56 L 512.29 406.24 C510.59,403.08 510.59,402.79 512.25,399.88 L 514.00 396.83 L 500.87 355.67 C493.66,333.03 487.35,314.07 486.87,313.55 C486.37,313.01 486.00,344.17 486.00,386.26 L 486.00 459.93 L 488.25 461.09 C492.21,463.12 495.92,467.23 497.14,470.91 C497.79,472.89 498.47,474.05 498.64,473.50 C498.81,472.95 502.36,458.34 506.52,441.03 ZM 371.08 400.37 C371.12,360.29 371.34,327.95 371.57,328.50 C371.79,329.05 376.71,356.05 382.51,388.50 C395.23,459.81 395.08,459.00 396.01,459.00 C396.42,459.00 396.37,457.09 395.91,454.75 C395.44,452.41 392.09,433.85 388.47,413.50 C384.84,393.15 379.88,365.48 377.43,352.00 L 372.98 327.50 L 375.57 325.61 C378.62,323.38 380.30,319.53 379.43,316.77 C378.85,314.94 378.56,315.04 375.45,318.04 C372.73,320.69 372.21,321.82 372.68,324.14 C373.00,325.76 372.82,327.00 372.25,327.00 C371.70,327.00 370.99,325.72 370.68,324.16 C370.19,321.72 366.68,319.15 346.09,306.16 C332.87,297.82 321.64,291.00 321.11,291.00 C320.59,291.00 309.10,305.20 295.58,322.55 L 271.00 354.09 L 271.00 406.53 L 271.00 458.96 L 274.91 460.95 C279.03,463.06 283.00,467.33 283.00,469.67 C283.00,470.44 283.88,471.39 284.96,471.78 C286.05,472.18 305.85,472.66 328.96,472.87 L 371.00 473.23 L 371.08 400.37 ZM 469.35 469.70 C470.98,465.81 476.35,461.00 479.08,461.00 C480.96,461.00 481.00,459.22 481.00,377.36 L 481.00 293.71 L 472.94 268.61 C468.50,254.80 463.96,240.69 462.85,237.25 C461.74,233.81 460.49,231.00 460.07,231.00 C459.65,231.00 445.88,244.95 429.47,262.00 C413.05,279.05 399.37,293.00 399.06,293.00 C398.75,293.00 398.62,330.52 398.76,376.38 L 399.02 459.75 L 401.87 460.32 C405.90,461.13 410.67,465.46 412.01,469.53 L 413.16 473.00 L 440.56 473.00 L 467.97 473.00 L 469.35 469.70 ZM 255.35 468.70 C256.11,466.89 258.17,464.19 259.94,462.70 L 263.15 460.00 L 252.87 429.08 C242.93,399.23 242.49,398.15 239.85,397.76 C237.31,397.39 235.27,399.72 211.50,430.20 L 185.88 463.03 L 187.78 465.76 C188.82,467.27 189.96,469.29 190.31,470.25 C190.89,471.87 193.35,472.00 222.46,472.00 L 253.97 472.00 L 255.35 468.70 ZM 210.99 429.08 C232.80,401.11 236.11,396.41 235.13,394.84 C233.43,392.12 233.76,388.63 235.95,386.28 C237.90,384.20 237.84,384.01 216.78,320.85 L 195.67 257.51 L 187.33 282.49 L 179.00 307.47 L 179.00 384.04 L 179.00 460.61 L 181.75 461.64 C183.26,462.21 184.77,462.41 185.10,462.09 C185.43,461.76 197.08,446.91 210.99,429.08 ZM 266.91 410.00 C266.94,384.42 266.63,362.97 266.21,362.31 C265.73,361.55 262.12,365.41 256.14,373.09 C247.27,384.47 246.87,385.19 247.87,388.06 C248.92,391.08 248.36,393.62 245.86,397.08 C244.96,398.34 246.83,405.00 255.02,429.56 C262.53,452.10 265.52,459.92 266.09,458.47 C266.51,457.39 266.88,435.58 266.91,410.00 ZM 528.89 348.50 C535.00,323.20 542.93,290.37 546.52,275.55 C552.61,250.44 552.93,248.54 551.28,247.63 C547.84,245.72 544.19,240.96 543.32,237.25 L 542.44 233.50 L 517.47 230.31 C503.74,228.55 491.02,227.09 489.21,227.06 L 485.91 227.00 L 486.24 266.75 L 486.57 306.50 L 494.17 329.50 C498.35,342.15 505.02,362.59 508.99,374.92 C513.62,389.26 516.51,396.84 517.01,395.92 C517.44,395.14 522.79,373.80 528.89,348.50 ZM 254.50 373.40 C267.70,356.47 267.00,358.45 267.00,338.20 C267.00,321.13 267.03,320.87 269.11,321.18 C271.15,321.49 271.21,321.96 271.06,336.25 C270.98,344.36 271.13,351.00 271.39,351.00 C271.86,351.00 316.73,293.89 318.38,291.21 C318.81,290.49 318.69,289.33 318.10,288.62 C315.84,285.89 298.46,290.17 290.83,295.34 C284.47,299.63 284.54,299.34 291.73,291.33 C300.30,281.79 301.60,280.63 302.89,281.43 C303.42,281.76 304.15,281.57 304.50,281.00 C304.85,280.43 305.49,280.19 305.92,280.45 C306.36,280.72 306.50,279.85 306.25,278.52 C305.86,276.47 310.24,271.33 334.60,245.30 C355.80,222.64 364.02,214.49 365.71,214.45 C366.96,214.43 368.53,213.87 369.20,213.20 C371.80,210.60 379.38,212.95 377.62,215.81 C376.91,216.96 382.09,216.06 383.74,214.75 C384.49,214.16 387.65,214.05 391.63,214.48 C396.28,214.97 398.48,214.84 398.98,214.03 C399.52,213.15 401.69,213.14 407.75,213.97 C420.05,215.65 420.23,215.49 430.90,193.00 C438.38,177.25 439.53,174.16 438.65,172.18 C437.91,170.53 437.94,169.32 438.75,168.03 C439.66,166.57 439.25,164.25 436.73,156.60 C434.99,151.32 433.32,147.02 433.03,147.05 C432.74,147.07 424.28,157.66 414.24,170.57 L 395.97 194.04 L 397.49 196.97 C398.38,198.71 399.00,202.55 399.00,206.44 L 399.00 212.97 L 392.75 212.36 C384.87,211.59 382.83,210.01 385.57,206.78 L 387.50 204.50 L 385.42 206.25 C384.28,207.21 382.46,208.00 381.37,208.00 C380.29,208.00 378.92,208.48 378.33,209.07 C377.01,210.39 370.78,209.90 370.31,208.44 C370.11,207.85 374.30,202.77 379.61,197.15 C384.91,191.52 389.03,186.70 388.76,186.43 C388.27,185.94 376.54,197.71 371.60,203.65 C369.72,205.92 368.40,206.66 366.93,206.27 C365.79,205.97 363.80,206.30 362.49,207.00 C360.53,208.05 357.20,207.91 343.17,206.14 C333.85,204.96 325.74,204.00 325.15,204.00 C324.55,204.00 323.61,203.14 323.05,202.10 C322.23,200.57 323.62,196.77 330.10,182.85 C334.53,173.31 338.31,164.15 338.48,162.50 C338.66,160.85 341.71,153.20 345.26,145.50 C348.81,137.80 358.49,116.65 366.77,98.50 C375.05,80.35 383.85,61.14 386.32,55.82 C390.56,46.70 390.72,46.05 389.08,44.57 C388.12,43.71 386.84,43.00 386.22,43.00 C385.61,43.00 360.22,61.49 329.81,84.09 C281.12,120.26 274.55,125.46 274.82,127.57 C275.02,129.09 274.21,130.88 272.57,132.52 L 270.00 135.09 L 270.00 161.01 C270.00,186.10 270.07,186.96 272.05,188.02 C273.84,188.99 275.05,188.22 281.94,181.74 C295.03,169.43 309.56,163.32 328.26,162.28 L 338.02 161.73 L 333.13 172.62 C321.38,198.74 320.73,200.00 318.98,200.00 C318.03,200.00 316.75,200.59 316.15,201.31 C315.26,202.40 311.99,202.24 297.78,200.44 C288.28,199.23 280.09,198.62 279.58,199.09 C278.26,200.31 279.60,200.58 297.92,202.87 C308.21,204.15 314.86,205.44 315.74,206.31 C316.93,207.50 315.26,211.81 304.13,236.10 C296.98,251.72 290.76,264.52 290.31,264.54 C284.81,264.80 282.76,268.05 285.15,272.70 C286.13,274.59 285.11,277.48 277.89,293.38 L 269.50 311.87 L 269.23 284.68 L 268.95 257.50 L 265.49 255.25 L 262.04 253.01 L 261.54 255.25 C259.94,262.53 243.07,383.30 243.54,384.07 C243.86,384.58 244.43,384.98 244.81,384.97 C245.19,384.95 249.55,379.74 254.50,373.40 ZM 250.96 319.50 C255.96,284.85 260.24,255.59 260.49,254.47 C260.86,252.76 257.02,249.97 235.96,236.65 C219.27,226.10 210.41,221.05 209.22,221.43 C207.98,221.83 206.13,225.96 203.06,235.25 C200.64,242.54 198.34,250.23 197.95,252.35 C197.32,255.72 199.88,264.17 218.11,318.85 C242.61,392.36 239.85,384.55 240.97,383.42 C241.47,382.91 245.96,354.15 250.96,319.50 ZM 372.78 315.51 L 374.96 311.03 L 372.55 310.42 C371.23,310.09 369.36,310.26 368.41,310.79 C366.99,311.58 365.29,310.35 359.09,304.04 C351.11,295.92 344.75,292.08 334.87,289.45 C329.08,287.91 322.00,287.53 322.00,288.76 C322.00,289.42 368.65,319.67 370.05,319.91 C370.35,319.96 371.58,317.98 372.78,315.51 ZM 384.78 294.50 C388.64,286.25 393.30,276.35 395.15,272.50 L 398.50 265.50 L 399.00 278.40 L 399.50 291.30 L 429.04 260.81 C449.18,240.00 458.57,229.63 458.57,228.16 C458.57,226.97 458.24,226.00 457.82,226.00 C457.41,226.00 456.27,225.16 455.29,224.12 C453.88,222.64 450.36,221.88 438.64,220.51 C424.24,218.83 423.70,218.84 421.34,220.64 C419.85,221.78 415.19,230.46 409.23,243.17 C403.90,254.54 399.15,263.77 398.68,263.67 C397.83,263.50 376.00,308.49 376.00,310.41 C376.00,312.61 378.06,308.88 384.78,294.50 ZM 186.28 276.25 C190.81,262.35 192.67,255.17 192.55,252.00 C192.36,246.90 181.01,211.87 179.79,212.63 C179.00,213.12 178.63,296.00 179.42,296.00 C179.65,296.00 182.73,287.11 186.28,276.25 ZM 481.22 256.51 L 480.94 226.02 L 478.72 225.57 C470.59,223.89 466.77,223.90 464.91,225.58 C462.84,227.45 462.43,231.55 463.96,235.20 C464.49,236.47 468.36,248.30 472.57,261.50 C479.67,283.72 480.79,287.00 481.31,287.00 C481.41,287.00 481.37,273.28 481.22,256.51 ZM 410.23 236.62 C415.08,226.27 417.78,219.38 417.21,218.81 C416.31,217.91 405.74,216.06 401.25,216.02 L 399.00 216.00 L 399.04 237.75 C399.09,262.97 397.83,263.10 410.23,236.62 ZM 269.00 232.33 C269.00,219.32 268.82,208.85 268.59,209.08 C268.36,209.31 267.00,217.60 265.56,227.50 C264.12,237.40 262.70,246.89 262.39,248.60 C261.91,251.29 262.27,251.98 265.17,253.83 C267.00,255.01 268.61,255.97 268.75,255.98 C268.89,255.99 269.00,245.35 269.00,232.33 ZM 264.03 229.46 C266.47,212.90 266.84,208.45 265.82,208.11 C265.10,207.87 263.28,206.43 261.76,204.91 C257.81,200.97 257.88,194.96 261.92,190.92 C263.53,189.32 265.56,188.00 266.44,188.00 C267.86,188.00 268.00,185.13 267.77,160.76 C267.53,136.26 267.33,133.49 265.83,133.21 C264.91,133.03 256.85,138.30 247.83,144.97 C234.25,155.02 231.47,157.51 231.29,159.76 C231.11,162.10 229.44,164.23 227.01,165.21 C226.62,165.37 222.65,176.49 218.17,189.92 C212.09,208.19 210.32,214.68 211.13,215.66 C211.73,216.38 212.00,217.56 211.72,218.28 C211.40,219.13 219.84,225.06 235.86,235.21 C249.41,243.81 260.60,250.74 260.72,250.61 C260.84,250.49 262.33,240.97 264.03,229.46 ZM 203.58 218.62 C202.86,216.67 200.24,214.24 195.74,211.35 C192.02,208.96 188.61,207.00 188.16,207.00 C187.72,207.00 186.27,208.14 184.96,209.54 L 182.57 212.08 L 187.92 228.29 C190.87,237.21 193.72,245.62 194.26,247.00 C195.12,249.21 195.78,247.88 199.95,235.52 C203.99,223.52 204.50,221.13 203.58,218.62 ZM 542.72 230.39 C542.38,230.05 531.84,225.38 519.30,220.01 C496.89,210.41 496.47,210.27 494.46,212.10 C493.33,213.12 490.97,214.46 489.21,215.08 C486.44,216.04 486.00,216.66 486.00,219.63 C486.00,221.52 486.56,223.28 487.25,223.54 C488.26,223.92 536.90,230.46 541.92,230.88 C542.70,230.95 543.06,230.72 542.72,230.39 ZM 463.50 225.00 C463.84,224.45 463.42,224.00 462.56,224.00 C461.70,224.00 461.00,224.45 461.00,225.00 C461.00,225.55 461.42,226.00 461.94,226.00 C462.46,226.00 463.16,225.55 463.50,225.00 ZM 481.00 219.66 C481.00,216.99 480.45,216.07 478.26,215.07 C475.69,213.90 475.33,214.05 472.29,217.66 L 469.06 221.50 L 473.28 222.10 C481.18,223.22 481.00,223.28 481.00,219.66 ZM 471.74 216.68 C474.94,213.67 474.96,213.59 473.12,211.56 C466.26,204.00 468.12,192.72 476.93,188.51 L 481.13 186.50 L 480.53 175.00 C479.04,146.51 476.27,103.94 475.88,103.54 C475.64,103.31 472.56,109.28 469.02,116.81 C465.49,124.34 458.82,138.38 454.21,148.00 C443.21,170.96 443.20,171.09 451.81,197.46 C456.83,212.82 458.53,216.85 460.75,218.65 C464.18,221.43 467.31,220.87 471.74,216.68 ZM 455.60 218.60 C455.90,217.82 455.26,214.34 454.18,210.85 C447.00,187.61 442.73,175.00 442.05,175.00 C441.62,175.00 440.12,177.59 438.73,180.75 C437.34,183.91 433.28,192.63 429.70,200.11 C426.13,207.60 423.54,214.25 423.94,214.89 C424.49,215.79 443.37,218.95 453.78,219.88 C454.49,219.95 455.31,219.37 455.60,218.60 ZM 206.09 213.72 C208.13,212.15 224.36,163.65 222.62,164.32 C221.91,164.59 213.90,170.30 204.82,177.01 L 188.30 189.20 L 189.68 193.19 C190.57,195.79 190.79,198.47 190.30,200.84 C189.88,202.85 189.53,204.81 189.52,205.19 C189.50,205.87 203.01,214.97 204.00,214.95 C204.27,214.94 205.21,214.39 206.09,213.72 ZM 273.93 206.54 C276.54,205.18 278.00,203.17 278.00,200.92 C278.00,200.41 275.98,200.00 273.50,200.00 L 269.00 200.00 L 269.00 204.00 C269.00,208.38 269.69,208.73 273.93,206.54 ZM 279.00 196.11 C279.00,195.07 278.11,193.16 277.01,191.86 L 275.03 189.50 L 273.04 192.00 C269.66,196.24 270.23,196.95 277.75,197.85 C278.44,197.93 279.00,197.15 279.00,196.11 ZM 414.34 168.83 C430.23,148.44 433.77,143.00 431.17,143.00 C430.71,143.00 428.12,145.36 425.42,148.25 C415.66,158.68 394.45,181.59 392.29,184.03 L 390.09 186.54 L 392.67 189.84 C394.09,191.66 395.58,192.77 395.97,192.32 C396.36,191.87 404.63,181.30 414.34,168.83 ZM 205.05 175.35 C218.12,165.68 222.04,162.28 221.69,160.91 C221.13,158.79 223.55,155.00 225.47,155.00 C226.38,155.00 232.84,136.97 244.87,100.90 L 262.91 46.79 L 259.75 44.15 C258.01,42.69 256.12,41.64 255.55,41.81 C254.97,41.98 240.27,48.66 222.87,56.65 L 191.23 71.17 L 190.78 76.61 C190.30,82.46 187.36,86.68 181.75,89.61 L 179.00 91.05 L 179.00 136.92 L 179.00 182.80 L 183.25 185.36 C185.59,186.77 187.60,187.94 187.72,187.96 C187.84,187.98 195.64,182.31 205.05,175.35 ZM 408.58 163.46 C421.32,149.68 428.79,140.81 429.30,138.86 C430.16,135.62 428.19,129.00 409.67,72.62 L 401.50 47.74 L 396.95 47.42 L 392.39 47.09 L 366.24 104.30 L 340.09 161.50 L 342.80 162.18 C344.28,162.56 348.65,163.58 352.50,164.45 C363.92,167.05 380.05,175.81 386.40,182.88 C387.45,184.05 388.39,185.00 388.49,185.00 C388.58,185.00 397.63,175.31 408.58,163.46 ZM 449.20 154.25 C468.89,112.96 474.99,99.41 474.49,98.12 C473.61,95.81 468.41,101.43 451.72,122.74 C443.43,133.33 436.46,141.80 436.23,141.56 C436.00,141.33 438.23,138.07 441.20,134.32 C451.72,121.04 452.34,119.61 443.75,128.50 L 435.06 137.50 L 435.50 142.63 C435.92,147.62 441.58,167.00 442.61,167.00 C442.89,167.00 445.86,161.26 449.20,154.25 ZM 481.00 129.51 C480.53,102.55 480.37,100.50 478.69,100.18 C477.16,99.88 476.96,100.34 477.39,103.16 C477.68,105.00 478.41,116.85 479.01,129.50 C479.99,150.04 480.77,159.89 481.31,158.85 C481.42,158.66 481.27,145.46 481.00,129.51 ZM 247.81 143.58 C262.33,132.86 263.89,131.42 263.35,129.27 C262.91,127.51 263.46,126.13 265.39,124.12 L 268.03 121.36 L 267.76 84.43 C267.59,60.65 267.14,47.50 266.50,47.50 C265.67,47.50 230.05,152.76 230.01,155.33 C229.99,156.67 230.85,156.11 247.81,143.58 ZM 453.34 115.55 L 471.85 95.60 L 470.34 92.69 C469.40,90.87 468.96,87.87 469.17,84.71 L 469.50 79.64 L 440.50 61.74 C424.55,51.90 410.96,43.61 410.30,43.33 C408.97,42.77 404.08,45.97 404.03,47.44 C403.98,48.90 431.54,134.44 432.62,136.20 C432.96,136.74 433.59,136.80 434.03,136.34 C434.48,135.88 443.17,126.52 453.34,115.55 ZM 328.35 83.84 C358.13,61.75 383.13,43.10 383.90,42.40 C385.06,41.35 385.08,40.61 384.03,38.07 L 382.76 35.00 L 333.50 35.00 L 284.24 35.00 L 283.05 37.88 C281.45,41.73 276.96,45.92 273.40,46.87 L 270.50 47.64 L 270.24 84.45 C269.98,120.90 270.21,124.00 273.23,124.00 C273.77,124.00 298.58,105.93 328.35,83.84 ZM 827.64 498.92 C815.51,495.94 806.85,490.90 796.92,481.03 C790.00,474.15 787.54,470.85 784.20,464.00 C774.73,444.55 774.73,423.45 784.20,404.00 C787.54,397.14 790.00,393.86 796.92,386.98 C804.61,379.35 815.38,372.00 818.89,372.00 C819.68,372.00 820.00,381.69 820.01,405.75 C820.01,426.79 820.42,440.96 821.09,443.38 C822.53,448.56 830.06,456.47 835.54,458.57 C838.59,459.73 841.97,460.11 846.82,459.84 C855.67,459.34 862.08,455.66 866.47,448.55 L 869.50 443.66 L 869.79 407.83 C869.98,383.14 870.41,372.00 871.15,372.00 C874.57,372.00 885.45,379.42 893.12,386.99 C900.26,394.03 902.44,396.97 905.77,404.00 C911.18,415.42 912.49,421.46 912.42,434.50 C912.30,454.45 907.04,467.08 893.01,481.10 C879.11,494.99 864.33,501.03 844.50,500.91 C839.17,500.88 832.29,500.07 827.64,498.92 ZM 1331.50 499.07 C1304.05,490.95 1285.10,463.72 1285.17,432.50 C1285.18,427.55 1285.57,421.70 1286.04,419.50 C1286.51,417.30 1287.16,413.97 1287.48,412.11 C1287.81,410.24 1289.90,404.90 1292.13,400.23 C1295.33,393.53 1297.99,389.87 1304.80,382.80 C1318.87,368.21 1331.94,363.18 1352.99,364.26 C1364.42,364.84 1371.40,367.25 1379.97,373.56 C1383.29,376.00 1386.07,377.66 1386.15,377.25 C1386.24,376.84 1386.41,376.05 1386.54,375.50 C1386.66,374.95 1386.82,373.04 1386.88,371.25 L 1387.00 368.00 L 1406.00 368.00 L 1425.00 368.00 L 1425.00 433.00 L 1425.00 498.00 L 1405.43 498.00 L 1385.85 498.00 L 1386.39 493.03 C1386.69,490.20 1386.49,487.81 1385.92,487.45 C1385.37,487.11 1383.16,488.43 1381.01,490.37 C1376.34,494.60 1371.42,497.21 1364.07,499.39 C1356.60,501.60 1339.49,501.44 1331.50,499.07 ZM 1370.97 460.42 C1380.55,455.20 1386.00,444.86 1386.00,431.88 C1386.00,419.24 1379.62,408.38 1369.30,403.46 C1363.91,400.89 1351.76,400.35 1344.83,402.36 C1338.70,404.14 1330.96,410.24 1328.31,415.36 C1319.76,431.90 1324.94,452.71 1339.50,460.26 C1345.51,463.37 1348.71,463.96 1357.65,463.58 C1364.29,463.30 1366.76,462.71 1370.97,460.42 ZM 658.11 489.25 C667.69,454.35 677.49,409.14 682.43,377.00 C687.01,347.17 688.82,331.33 692.48,289.00 C694.11,270.13 695.17,225.91 694.59,200.75 L 693.92 172.00 L 708.62 172.00 L 723.32 172.00 L 722.70 197.25 C720.82,273.90 728.82,358.08 745.07,432.50 C748.54,448.40 756.09,479.05 759.11,489.50 C760.22,493.35 761.36,497.29 761.63,498.25 C762.11,499.90 759.11,500.00 708.65,500.00 L 655.16 500.00 L 658.11 489.25 ZM 965.00 431.00 L 965.00 364.00 L 943.00 364.00 L 921.00 364.00 L 921.00 342.00 L 921.00 320.00 L 987.50 320.00 L 1054.00 320.00 L 1054.00 342.00 L 1054.00 364.00 L 1032.00 364.00 L 1010.00 364.00 L 1010.00 431.00 L 1010.00 498.00 L 987.50 498.00 L 965.00 498.00 L 965.00 431.00 ZM 1199.00 433.00 L 1199.00 368.00 L 1218.50 368.00 L 1238.00 368.00 L 1238.04 378.25 L 1238.09 388.50 L 1240.13 384.63 C1242.75,379.66 1250.14,372.48 1255.40,369.79 C1260.63,367.12 1268.44,365.03 1273.25,365.01 L 1277.00 365.00 L 1277.00 387.00 L 1277.00 409.00 L 1269.54 409.00 C1259.44,409.00 1252.11,411.80 1245.88,418.02 C1238.35,425.56 1238.00,427.65 1238.00,465.68 L 1238.00 498.00 L 1218.50 498.00 L 1199.00 498.00 L 1199.00 433.00 ZM 1070.67 438.33 C1070.30,437.97 1070.00,429.69 1070.00,419.94 C1070.00,404.70 1070.22,402.13 1071.58,401.61 C1072.45,401.27 1094.73,401.00 1121.08,401.00 L 1169.00 401.00 L 1169.00 420.00 L 1169.00 439.00 L 1120.17 439.00 C1093.31,439.00 1071.03,438.70 1070.67,438.33 ZM 834.70 426.37 C834.31,425.98 834.00,407.29 834.00,384.83 L 834.00 344.00 L 845.01 344.00 L 856.02 344.00 L 855.76 385.25 L 855.50 426.50 L 845.45 426.78 C839.92,426.94 835.08,426.75 834.70,426.37 ZM 269.00 317.85 C269.00,316.39 270.26,314.17 272.07,312.44 L 275.14 309.50 L 272.40 314.50 C268.91,320.87 269.00,320.78 269.00,317.85 ZM 273.40 306.95 C274.20,305.05 277.73,297.20 281.25,289.50 C286.38,278.26 288.07,275.44 289.84,275.18 C291.06,275.00 292.77,273.76 293.64,272.42 C294.97,270.40 295.03,269.49 294.03,267.07 C292.90,264.35 293.64,262.37 305.34,236.83 C316.15,213.20 318.27,209.26 320.98,207.74 C323.99,206.05 324.80,206.06 340.81,208.02 C361.26,210.53 362.00,210.69 362.00,212.48 C362.00,214.86 305.39,274.81 302.79,275.18 C301.22,275.40 300.39,276.29 300.15,278.00 C299.80,280.51 298.53,282.01 281.26,300.45 C273.89,308.31 272.24,309.67 273.40,306.95 Z" fill="rgba(1,68,135,1)"/>
</g>
</svg>